<mxfile host="65bd71144e">
    <diagram id="C5RBs43oDa-KdzZeNtuy" name="Page-1">
        <mxGraphModel dx="662" dy="591" grid="1" gridSize="10" guides="1" tooltips="1" connect="1" arrows="1" fold="1" page="1" pageScale="1" pageWidth="827" pageHeight="1169" math="0" shadow="0">
            <root>
                <mxCell id="WIyWlLk6GJQsqaUBKTNV-0"/>
                <mxCell id="WIyWlLk6GJQsqaUBKTNV-1" parent="WIyWlLk6GJQsqaUBKTNV-0"/>
                <mxCell id="Fsg9D9SGNPeNGhBn40lB-104" value="" style="rounded=0;whiteSpace=wrap;html=1;fontSize=12;align=left;fontColor=#000000;" parent="WIyWlLk6GJQsqaUBKTNV-1" vertex="1">
                    <mxGeometry x="880" y="710" width="200" height="330" as="geometry"/>
                </mxCell>
                <mxCell id="Fsg9D9SGNPeNGhBn40lB-4" value="" style="edgeStyle=orthogonalEdgeStyle;rounded=0;orthogonalLoop=1;jettySize=auto;html=1;fontColor=#000000;" parent="WIyWlLk6GJQsqaUBKTNV-1" source="WIyWlLk6GJQsqaUBKTNV-3" target="Fsg9D9SGNPeNGhBn40lB-3" edge="1">
                    <mxGeometry relative="1" as="geometry"/>
                </mxCell>
                <mxCell id="WIyWlLk6GJQsqaUBKTNV-3" value="Customer submits requests" style="rounded=1;whiteSpace=wrap;html=1;fontSize=12;glass=0;strokeWidth=1;shadow=0;fillColor=#d5e8d4;strokeColor=#82b366;fontColor=#000000;" parent="WIyWlLk6GJQsqaUBKTNV-1" vertex="1">
                    <mxGeometry x="160" y="60" width="120" height="60" as="geometry"/>
                </mxCell>
                <mxCell id="Fsg9D9SGNPeNGhBn40lB-6" value="" style="edgeStyle=orthogonalEdgeStyle;rounded=0;orthogonalLoop=1;jettySize=auto;html=1;fontColor=#000000;" parent="WIyWlLk6GJQsqaUBKTNV-1" source="Fsg9D9SGNPeNGhBn40lB-3" target="Fsg9D9SGNPeNGhBn40lB-5" edge="1">
                    <mxGeometry relative="1" as="geometry"/>
                </mxCell>
                <mxCell id="Fsg9D9SGNPeNGhBn40lB-3" value="Request Reviewed" style="whiteSpace=wrap;html=1;rounded=1;shadow=0;strokeColor=#d6b656;strokeWidth=1;fillColor=#fff2cc;glass=0;fontColor=#000000;" parent="WIyWlLk6GJQsqaUBKTNV-1" vertex="1">
                    <mxGeometry x="160" y="160" width="120" height="60" as="geometry"/>
                </mxCell>
                <mxCell id="Fsg9D9SGNPeNGhBn40lB-7" style="edgeStyle=orthogonalEdgeStyle;rounded=0;orthogonalLoop=1;jettySize=auto;html=1;entryX=0;entryY=0.5;entryDx=0;entryDy=0;fontColor=#000000;" parent="WIyWlLk6GJQsqaUBKTNV-1" source="Fsg9D9SGNPeNGhBn40lB-5" target="WIyWlLk6GJQsqaUBKTNV-3" edge="1">
                    <mxGeometry relative="1" as="geometry">
                        <Array as="points">
                            <mxPoint x="100" y="300"/>
                            <mxPoint x="100" y="90"/>
                        </Array>
                    </mxGeometry>
                </mxCell>
                <mxCell id="Fsg9D9SGNPeNGhBn40lB-9" value="" style="edgeStyle=orthogonalEdgeStyle;rounded=0;orthogonalLoop=1;jettySize=auto;html=1;fontColor=#000000;" parent="WIyWlLk6GJQsqaUBKTNV-1" source="Fsg9D9SGNPeNGhBn40lB-5" target="Fsg9D9SGNPeNGhBn40lB-8" edge="1">
                    <mxGeometry relative="1" as="geometry"/>
                </mxCell>
                <mxCell id="Fsg9D9SGNPeNGhBn40lB-11" value="" style="edgeStyle=orthogonalEdgeStyle;rounded=0;orthogonalLoop=1;jettySize=auto;html=1;fontColor=#000000;" parent="WIyWlLk6GJQsqaUBKTNV-1" source="Fsg9D9SGNPeNGhBn40lB-5" target="Fsg9D9SGNPeNGhBn40lB-10" edge="1">
                    <mxGeometry relative="1" as="geometry"/>
                </mxCell>
                <mxCell id="Fsg9D9SGNPeNGhBn40lB-5" value="Review" style="rhombus;whiteSpace=wrap;html=1;rounded=1;shadow=0;strokeColor=#d6b656;strokeWidth=1;fillColor=#fff2cc;glass=0;fontColor=#000000;" parent="WIyWlLk6GJQsqaUBKTNV-1" vertex="1">
                    <mxGeometry x="180" y="260" width="80" height="80" as="geometry"/>
                </mxCell>
                <mxCell id="Fsg9D9SGNPeNGhBn40lB-8" value="Request Rejected" style="shape=hexagon;perimeter=hexagonPerimeter2;whiteSpace=wrap;html=1;fixedSize=1;rounded=1;shadow=0;strokeColor=#666666;strokeWidth=1;fillColor=#f5f5f5;glass=0;fontColor=#000000;" parent="WIyWlLk6GJQsqaUBKTNV-1" vertex="1">
                    <mxGeometry x="340" y="260" width="120" height="80" as="geometry"/>
                </mxCell>
                <mxCell id="Fsg9D9SGNPeNGhBn40lB-13" value="" style="edgeStyle=orthogonalEdgeStyle;rounded=0;orthogonalLoop=1;jettySize=auto;html=1;fontColor=#000000;" parent="WIyWlLk6GJQsqaUBKTNV-1" source="Fsg9D9SGNPeNGhBn40lB-10" target="Fsg9D9SGNPeNGhBn40lB-12" edge="1">
                    <mxGeometry relative="1" as="geometry"/>
                </mxCell>
                <mxCell id="Fsg9D9SGNPeNGhBn40lB-10" value="Project created, prioritised and requirements defined" style="whiteSpace=wrap;html=1;rounded=1;shadow=0;strokeColor=#d6b656;strokeWidth=1;fillColor=#fff2cc;glass=0;fontColor=#000000;" parent="WIyWlLk6GJQsqaUBKTNV-1" vertex="1">
                    <mxGeometry x="160" y="420" width="120" height="60" as="geometry"/>
                </mxCell>
                <mxCell id="Fsg9D9SGNPeNGhBn40lB-17" value="" style="edgeStyle=orthogonalEdgeStyle;rounded=0;orthogonalLoop=1;jettySize=auto;html=1;fontColor=#000000;" parent="WIyWlLk6GJQsqaUBKTNV-1" source="Fsg9D9SGNPeNGhBn40lB-12" target="Fsg9D9SGNPeNGhBn40lB-16" edge="1">
                    <mxGeometry relative="1" as="geometry"/>
                </mxCell>
                <mxCell id="Fsg9D9SGNPeNGhBn40lB-27" style="edgeStyle=orthogonalEdgeStyle;rounded=0;orthogonalLoop=1;jettySize=auto;html=1;entryX=0.5;entryY=0;entryDx=0;entryDy=0;fontColor=#000000;" parent="WIyWlLk6GJQsqaUBKTNV-1" source="Fsg9D9SGNPeNGhBn40lB-12" target="Fsg9D9SGNPeNGhBn40lB-31" edge="1">
                    <mxGeometry relative="1" as="geometry">
                        <mxPoint x="380" y="880" as="targetPoint"/>
                    </mxGeometry>
                </mxCell>
                <mxCell id="Fsg9D9SGNPeNGhBn40lB-12" value="Quick win?" style="rhombus;whiteSpace=wrap;html=1;rounded=1;shadow=0;strokeColor=#666666;strokeWidth=1;fillColor=#f5f5f5;glass=0;fontColor=#000000;" parent="WIyWlLk6GJQsqaUBKTNV-1" vertex="1">
                    <mxGeometry x="180" y="520" width="80" height="80" as="geometry"/>
                </mxCell>
                <mxCell id="Fsg9D9SGNPeNGhBn40lB-19" value="" style="edgeStyle=orthogonalEdgeStyle;rounded=0;orthogonalLoop=1;jettySize=auto;html=1;fontColor=#000000;" parent="WIyWlLk6GJQsqaUBKTNV-1" source="Fsg9D9SGNPeNGhBn40lB-16" target="Fsg9D9SGNPeNGhBn40lB-18" edge="1">
                    <mxGeometry relative="1" as="geometry"/>
                </mxCell>
                <mxCell id="Fsg9D9SGNPeNGhBn40lB-16" value="Complete User Stories" style="whiteSpace=wrap;html=1;rounded=1;shadow=0;strokeColor=#d6b656;strokeWidth=1;fillColor=#fff2cc;glass=0;fontColor=#000000;" parent="WIyWlLk6GJQsqaUBKTNV-1" vertex="1">
                    <mxGeometry x="160" y="680" width="120" height="60" as="geometry"/>
                </mxCell>
                <mxCell id="Fsg9D9SGNPeNGhBn40lB-21" value="" style="edgeStyle=orthogonalEdgeStyle;rounded=0;orthogonalLoop=1;jettySize=auto;html=1;fontColor=#000000;" parent="WIyWlLk6GJQsqaUBKTNV-1" source="Fsg9D9SGNPeNGhBn40lB-18" target="Fsg9D9SGNPeNGhBn40lB-20" edge="1">
                    <mxGeometry relative="1" as="geometry"/>
                </mxCell>
                <mxCell id="Fsg9D9SGNPeNGhBn40lB-18" value="Complete Wireframe" style="whiteSpace=wrap;html=1;rounded=1;shadow=0;strokeColor=#d6b656;strokeWidth=1;fillColor=#fff2cc;glass=0;fontColor=#000000;" parent="WIyWlLk6GJQsqaUBKTNV-1" vertex="1">
                    <mxGeometry x="160" y="780" width="120" height="60" as="geometry"/>
                </mxCell>
                <mxCell id="Fsg9D9SGNPeNGhBn40lB-26" value="" style="edgeStyle=orthogonalEdgeStyle;rounded=0;orthogonalLoop=1;jettySize=auto;html=1;entryX=0;entryY=0.5;entryDx=0;entryDy=0;fontColor=#000000;" parent="WIyWlLk6GJQsqaUBKTNV-1" source="Fsg9D9SGNPeNGhBn40lB-20" target="Fsg9D9SGNPeNGhBn40lB-31" edge="1">
                    <mxGeometry relative="1" as="geometry">
                        <mxPoint x="320" y="910" as="targetPoint"/>
                    </mxGeometry>
                </mxCell>
                <mxCell id="Fsg9D9SGNPeNGhBn40lB-20" value="Complete PRL" style="whiteSpace=wrap;html=1;rounded=1;shadow=0;strokeColor=#d6b656;strokeWidth=1;fillColor=#fff2cc;glass=0;fontColor=#000000;" parent="WIyWlLk6GJQsqaUBKTNV-1" vertex="1">
                    <mxGeometry x="160" y="880" width="120" height="60" as="geometry"/>
                </mxCell>
                <mxCell id="Fsg9D9SGNPeNGhBn40lB-22" value="Request rejected" style="text;html=1;strokeColor=none;fillColor=none;align=center;verticalAlign=middle;whiteSpace=wrap;rounded=0;fontSize=9;fontColor=#FFFFFF;" parent="WIyWlLk6GJQsqaUBKTNV-1" vertex="1">
                    <mxGeometry x="250" y="270" width="80" height="30" as="geometry"/>
                </mxCell>
                <mxCell id="Fsg9D9SGNPeNGhBn40lB-23" value="Request approved" style="text;html=1;strokeColor=none;fillColor=none;align=center;verticalAlign=middle;whiteSpace=wrap;rounded=0;fontSize=9;rotation=90;fontColor=#FFFFFF;" parent="WIyWlLk6GJQsqaUBKTNV-1" vertex="1">
                    <mxGeometry x="195" y="360" width="80" height="30" as="geometry"/>
                </mxCell>
                <mxCell id="Fsg9D9SGNPeNGhBn40lB-24" value="More info required" style="text;html=1;strokeColor=none;fillColor=none;align=center;verticalAlign=middle;whiteSpace=wrap;rounded=0;fontSize=9;fontColor=#FFFFFF;" parent="WIyWlLk6GJQsqaUBKTNV-1" vertex="1">
                    <mxGeometry x="100" y="300" width="80" height="30" as="geometry"/>
                </mxCell>
                <mxCell id="Fsg9D9SGNPeNGhBn40lB-29" value="" style="edgeStyle=orthogonalEdgeStyle;rounded=0;orthogonalLoop=1;jettySize=auto;html=1;exitX=1;exitY=0.5;exitDx=0;exitDy=0;fontColor=#000000;" parent="WIyWlLk6GJQsqaUBKTNV-1" source="Fsg9D9SGNPeNGhBn40lB-31" edge="1">
                    <mxGeometry relative="1" as="geometry">
                        <mxPoint x="440" y="910" as="sourcePoint"/>
                        <mxPoint x="480" y="910" as="targetPoint"/>
                    </mxGeometry>
                </mxCell>
                <mxCell id="Fsg9D9SGNPeNGhBn40lB-33" style="edgeStyle=orthogonalEdgeStyle;rounded=0;orthogonalLoop=1;jettySize=auto;html=1;entryX=0;entryY=0.5;entryDx=0;entryDy=0;exitX=0.5;exitY=1;exitDx=0;exitDy=0;fontColor=#000000;" parent="WIyWlLk6GJQsqaUBKTNV-1" source="Fsg9D9SGNPeNGhBn40lB-31" target="Fsg9D9SGNPeNGhBn40lB-10" edge="1">
                    <mxGeometry relative="1" as="geometry">
                        <Array as="points">
                            <mxPoint x="360" y="1040"/>
                            <mxPoint x="100" y="1040"/>
                            <mxPoint x="100" y="450"/>
                        </Array>
                    </mxGeometry>
                </mxCell>
                <mxCell id="Fsg9D9SGNPeNGhBn40lB-31" value="Dev Mgr&lt;br&gt;Review" style="rhombus;whiteSpace=wrap;html=1;rounded=1;shadow=0;strokeColor=#b85450;strokeWidth=1;fillColor=#f8cecc;glass=0;fontColor=#000000;" parent="WIyWlLk6GJQsqaUBKTNV-1" vertex="1">
                    <mxGeometry x="320" y="870" width="80" height="80" as="geometry"/>
                </mxCell>
                <mxCell id="Fsg9D9SGNPeNGhBn40lB-34" value="Yes" style="text;html=1;strokeColor=none;fillColor=none;align=center;verticalAlign=middle;whiteSpace=wrap;rounded=0;fontSize=9;fontColor=#FFFFFF;" parent="WIyWlLk6GJQsqaUBKTNV-1" vertex="1">
                    <mxGeometry x="250" y="530" width="40" height="30" as="geometry"/>
                </mxCell>
                <mxCell id="Fsg9D9SGNPeNGhBn40lB-35" value="No" style="text;html=1;strokeColor=none;fillColor=none;align=center;verticalAlign=middle;whiteSpace=wrap;rounded=0;fontSize=9;rotation=90;fontColor=#FFFFFF;" parent="WIyWlLk6GJQsqaUBKTNV-1" vertex="1">
                    <mxGeometry x="215" y="590" width="40" height="30" as="geometry"/>
                </mxCell>
                <mxCell id="Fsg9D9SGNPeNGhBn40lB-36" value="Project Allocated" style="text;html=1;strokeColor=none;fillColor=none;align=center;verticalAlign=middle;whiteSpace=wrap;rounded=0;fontSize=9;fontColor=#FFFFFF;" parent="WIyWlLk6GJQsqaUBKTNV-1" vertex="1">
                    <mxGeometry x="390" y="880" width="80" height="30" as="geometry"/>
                </mxCell>
                <mxCell id="Fsg9D9SGNPeNGhBn40lB-37" value="More info required" style="text;html=1;strokeColor=none;fillColor=none;align=center;verticalAlign=middle;whiteSpace=wrap;rounded=0;fontSize=9;rotation=90;fontColor=#FFFFFF;" parent="WIyWlLk6GJQsqaUBKTNV-1" vertex="1">
                    <mxGeometry x="335" y="970" width="80" height="30" as="geometry"/>
                </mxCell>
                <mxCell id="Fsg9D9SGNPeNGhBn40lB-40" value="" style="edgeStyle=orthogonalEdgeStyle;rounded=0;orthogonalLoop=1;jettySize=auto;html=1;fontColor=#000000;" parent="WIyWlLk6GJQsqaUBKTNV-1" source="Fsg9D9SGNPeNGhBn40lB-38" target="Fsg9D9SGNPeNGhBn40lB-39" edge="1">
                    <mxGeometry relative="1" as="geometry"/>
                </mxCell>
                <mxCell id="Fsg9D9SGNPeNGhBn40lB-38" value="Quick win?" style="rhombus;whiteSpace=wrap;html=1;rounded=1;shadow=0;strokeColor=#666666;strokeWidth=1;fillColor=#f5f5f5;glass=0;fontColor=#000000;" parent="WIyWlLk6GJQsqaUBKTNV-1" vertex="1">
                    <mxGeometry x="640" y="870" width="80" height="80" as="geometry"/>
                </mxCell>
                <mxCell id="Fsg9D9SGNPeNGhBn40lB-52" style="edgeStyle=orthogonalEdgeStyle;rounded=0;orthogonalLoop=1;jettySize=auto;html=1;entryX=0.5;entryY=1;entryDx=0;entryDy=0;endArrow=classic;endFill=1;fontColor=#000000;" parent="WIyWlLk6GJQsqaUBKTNV-1" source="Fsg9D9SGNPeNGhBn40lB-39" target="Fsg9D9SGNPeNGhBn40lB-41" edge="1">
                    <mxGeometry relative="1" as="geometry"/>
                </mxCell>
                <mxCell id="Fsg9D9SGNPeNGhBn40lB-39" value="Expand PRL and plan Increments and Timeboxes" style="whiteSpace=wrap;html=1;rounded=1;shadow=0;strokeColor=#6c8ebf;strokeWidth=1;fillColor=#dae8fc;glass=0;fontColor=#000000;" parent="WIyWlLk6GJQsqaUBKTNV-1" vertex="1">
                    <mxGeometry x="620" y="740" width="120" height="60" as="geometry"/>
                </mxCell>
                <mxCell id="Fsg9D9SGNPeNGhBn40lB-55" value="" style="edgeStyle=orthogonalEdgeStyle;rounded=0;orthogonalLoop=1;jettySize=auto;html=1;endArrow=classic;endFill=1;fontColor=#000000;" parent="WIyWlLk6GJQsqaUBKTNV-1" source="Fsg9D9SGNPeNGhBn40lB-41" target="Fsg9D9SGNPeNGhBn40lB-54" edge="1">
                    <mxGeometry relative="1" as="geometry"/>
                </mxCell>
                <mxCell id="Fsg9D9SGNPeNGhBn40lB-41" value="Project Developed" style="whiteSpace=wrap;html=1;rounded=1;shadow=0;strokeColor=#6c8ebf;strokeWidth=1;fillColor=#dae8fc;glass=0;fontColor=#000000;" parent="WIyWlLk6GJQsqaUBKTNV-1" vertex="1">
                    <mxGeometry x="620" y="640" width="120" height="60" as="geometry"/>
                </mxCell>
                <mxCell id="Fsg9D9SGNPeNGhBn40lB-44" value="No" style="text;html=1;strokeColor=none;fillColor=none;align=center;verticalAlign=middle;whiteSpace=wrap;rounded=0;fontSize=9;rotation=-90;fontColor=#FFFFFF;" parent="WIyWlLk6GJQsqaUBKTNV-1" vertex="1">
                    <mxGeometry x="645" y="850" width="40" height="30" as="geometry"/>
                </mxCell>
                <mxCell id="Fsg9D9SGNPeNGhBn40lB-53" style="edgeStyle=orthogonalEdgeStyle;rounded=0;orthogonalLoop=1;jettySize=auto;html=1;exitX=0.25;exitY=1;exitDx=0;exitDy=0;entryX=1;entryY=0.5;entryDx=0;entryDy=0;endArrow=classic;endFill=1;fontColor=#000000;" parent="WIyWlLk6GJQsqaUBKTNV-1" source="Fsg9D9SGNPeNGhBn40lB-45" target="Fsg9D9SGNPeNGhBn40lB-41" edge="1">
                    <mxGeometry relative="1" as="geometry">
                        <Array as="points">
                            <mxPoint x="800" y="910"/>
                            <mxPoint x="800" y="670"/>
                        </Array>
                    </mxGeometry>
                </mxCell>
                <mxCell id="Fsg9D9SGNPeNGhBn40lB-45" value="Yes" style="text;html=1;strokeColor=none;fillColor=none;align=center;verticalAlign=middle;whiteSpace=wrap;rounded=0;fontSize=9;rotation=0;fontColor=#FFFFFF;" parent="WIyWlLk6GJQsqaUBKTNV-1" vertex="1">
                    <mxGeometry x="710" y="880" width="40" height="30" as="geometry"/>
                </mxCell>
                <mxCell id="Fsg9D9SGNPeNGhBn40lB-47" style="edgeStyle=orthogonalEdgeStyle;rounded=0;orthogonalLoop=1;jettySize=auto;html=1;exitX=0.5;exitY=1;exitDx=0;exitDy=0;endArrow=classic;endFill=1;fontColor=#000000;" parent="WIyWlLk6GJQsqaUBKTNV-1" source="Fsg9D9SGNPeNGhBn40lB-46" edge="1">
                    <mxGeometry relative="1" as="geometry">
                        <mxPoint x="360" y="1040" as="targetPoint"/>
                        <Array as="points">
                            <mxPoint x="520" y="1040"/>
                        </Array>
                    </mxGeometry>
                </mxCell>
                <mxCell id="Fsg9D9SGNPeNGhBn40lB-50" style="edgeStyle=orthogonalEdgeStyle;rounded=0;orthogonalLoop=1;jettySize=auto;html=1;exitX=1;exitY=0.5;exitDx=0;exitDy=0;entryX=0;entryY=0.5;entryDx=0;entryDy=0;endArrow=classic;endFill=1;fontColor=#000000;" parent="WIyWlLk6GJQsqaUBKTNV-1" source="Fsg9D9SGNPeNGhBn40lB-46" target="Fsg9D9SGNPeNGhBn40lB-38" edge="1">
                    <mxGeometry relative="1" as="geometry"/>
                </mxCell>
                <mxCell id="Fsg9D9SGNPeNGhBn40lB-46" value="Dev&lt;br&gt;Review" style="rhombus;whiteSpace=wrap;html=1;rounded=1;shadow=0;strokeColor=#6c8ebf;strokeWidth=1;fillColor=#dae8fc;glass=0;fontColor=#000000;" parent="WIyWlLk6GJQsqaUBKTNV-1" vertex="1">
                    <mxGeometry x="480" y="870" width="80" height="80" as="geometry"/>
                </mxCell>
                <mxCell id="Fsg9D9SGNPeNGhBn40lB-48" value="More info required" style="text;html=1;strokeColor=none;fillColor=none;align=center;verticalAlign=middle;whiteSpace=wrap;rounded=0;fontSize=9;rotation=90;fontColor=#FFFFFF;" parent="WIyWlLk6GJQsqaUBKTNV-1" vertex="1">
                    <mxGeometry x="495" y="970" width="80" height="30" as="geometry"/>
                </mxCell>
                <mxCell id="Fsg9D9SGNPeNGhBn40lB-51" value="Project Accepted" style="text;html=1;strokeColor=none;fillColor=none;align=center;verticalAlign=middle;whiteSpace=wrap;rounded=0;fontSize=9;fontColor=#FFFFFF;" parent="WIyWlLk6GJQsqaUBKTNV-1" vertex="1">
                    <mxGeometry x="550" y="880" width="80" height="30" as="geometry"/>
                </mxCell>
                <mxCell id="Fsg9D9SGNPeNGhBn40lB-62" style="edgeStyle=orthogonalEdgeStyle;rounded=0;orthogonalLoop=1;jettySize=auto;html=1;entryX=0.5;entryY=1;entryDx=0;entryDy=0;endArrow=classic;endFill=1;fontColor=#000000;" parent="WIyWlLk6GJQsqaUBKTNV-1" source="Fsg9D9SGNPeNGhBn40lB-54" target="Fsg9D9SGNPeNGhBn40lB-67" edge="1">
                    <mxGeometry relative="1" as="geometry">
                        <mxPoint x="740" y="210" as="targetPoint"/>
                        <Array as="points">
                            <mxPoint x="840" y="560"/>
                        </Array>
                    </mxGeometry>
                </mxCell>
                <mxCell id="Fsg9D9SGNPeNGhBn40lB-70" value="" style="edgeStyle=orthogonalEdgeStyle;rounded=0;orthogonalLoop=1;jettySize=auto;html=1;endArrow=classic;endFill=1;fontColor=#000000;" parent="WIyWlLk6GJQsqaUBKTNV-1" source="Fsg9D9SGNPeNGhBn40lB-54" target="Fsg9D9SGNPeNGhBn40lB-69" edge="1">
                    <mxGeometry relative="1" as="geometry"/>
                </mxCell>
                <mxCell id="Fsg9D9SGNPeNGhBn40lB-54" value="Quick win?" style="rhombus;whiteSpace=wrap;html=1;rounded=1;shadow=0;strokeColor=#666666;strokeWidth=1;fillColor=#f5f5f5;glass=0;fontColor=#000000;" parent="WIyWlLk6GJQsqaUBKTNV-1" vertex="1">
                    <mxGeometry x="640" y="520" width="80" height="80" as="geometry"/>
                </mxCell>
                <mxCell id="Fsg9D9SGNPeNGhBn40lB-66" value="" style="edgeStyle=orthogonalEdgeStyle;rounded=0;orthogonalLoop=1;jettySize=auto;html=1;endArrow=classic;endFill=1;fontColor=#000000;" parent="WIyWlLk6GJQsqaUBKTNV-1" target="Fsg9D9SGNPeNGhBn40lB-65" edge="1">
                    <mxGeometry relative="1" as="geometry">
                        <mxPoint x="680" y="380" as="sourcePoint"/>
                    </mxGeometry>
                </mxCell>
                <mxCell id="Fsg9D9SGNPeNGhBn40lB-63" value="No" style="text;html=1;strokeColor=none;fillColor=none;align=center;verticalAlign=middle;whiteSpace=wrap;rounded=0;fontSize=9;rotation=-90;fontColor=#FFFFFF;" parent="WIyWlLk6GJQsqaUBKTNV-1" vertex="1">
                    <mxGeometry x="645" y="490" width="40" height="30" as="geometry"/>
                </mxCell>
                <mxCell id="Fsg9D9SGNPeNGhBn40lB-64" value="Yes" style="text;html=1;strokeColor=none;fillColor=none;align=center;verticalAlign=middle;whiteSpace=wrap;rounded=0;fontSize=9;rotation=0;fontColor=#FFFFFF;" parent="WIyWlLk6GJQsqaUBKTNV-1" vertex="1">
                    <mxGeometry x="710" y="530" width="40" height="30" as="geometry"/>
                </mxCell>
                <mxCell id="Fsg9D9SGNPeNGhBn40lB-68" value="" style="edgeStyle=orthogonalEdgeStyle;rounded=0;orthogonalLoop=1;jettySize=auto;html=1;endArrow=classic;endFill=1;fontColor=#000000;" parent="WIyWlLk6GJQsqaUBKTNV-1" source="Fsg9D9SGNPeNGhBn40lB-65" target="Fsg9D9SGNPeNGhBn40lB-67" edge="1">
                    <mxGeometry relative="1" as="geometry"/>
                </mxCell>
                <mxCell id="Fsg9D9SGNPeNGhBn40lB-72" style="edgeStyle=orthogonalEdgeStyle;rounded=0;orthogonalLoop=1;jettySize=auto;html=1;endArrow=classic;endFill=1;entryX=0;entryY=0;entryDx=0;entryDy=0;fontColor=#000000;" parent="WIyWlLk6GJQsqaUBKTNV-1" source="Fsg9D9SGNPeNGhBn40lB-65" target="Fsg9D9SGNPeNGhBn40lB-75" edge="1">
                    <mxGeometry relative="1" as="geometry">
                        <mxPoint x="540" y="400" as="targetPoint"/>
                        <Array as="points">
                            <mxPoint x="520" y="240"/>
                        </Array>
                    </mxGeometry>
                </mxCell>
                <mxCell id="Fsg9D9SGNPeNGhBn40lB-65" value="Dev Mgr&lt;br&gt;Sign Off" style="rhombus;whiteSpace=wrap;html=1;rounded=1;shadow=0;strokeColor=#b85450;strokeWidth=1;fillColor=#f8cecc;glass=0;fontColor=#000000;" parent="WIyWlLk6GJQsqaUBKTNV-1" vertex="1">
                    <mxGeometry x="640" y="200" width="80" height="80" as="geometry"/>
                </mxCell>
                <mxCell id="Fsg9D9SGNPeNGhBn40lB-73" style="edgeStyle=orthogonalEdgeStyle;rounded=0;orthogonalLoop=1;jettySize=auto;html=1;endArrow=classic;endFill=1;fontColor=#000000;" parent="WIyWlLk6GJQsqaUBKTNV-1" source="Fsg9D9SGNPeNGhBn40lB-67" edge="1">
                    <mxGeometry relative="1" as="geometry">
                        <mxPoint x="520" y="240" as="targetPoint"/>
                        <Array as="points">
                            <mxPoint x="520" y="80"/>
                            <mxPoint x="520" y="240"/>
                        </Array>
                    </mxGeometry>
                </mxCell>
                <mxCell id="Fsg9D9SGNPeNGhBn40lB-81" value="" style="edgeStyle=orthogonalEdgeStyle;rounded=0;orthogonalLoop=1;jettySize=auto;html=1;endArrow=classic;endFill=1;fontColor=#000000;" parent="WIyWlLk6GJQsqaUBKTNV-1" source="Fsg9D9SGNPeNGhBn40lB-67" target="Fsg9D9SGNPeNGhBn40lB-80" edge="1">
                    <mxGeometry relative="1" as="geometry"/>
                </mxCell>
                <mxCell id="Fsg9D9SGNPeNGhBn40lB-67" value="Business Analyst&lt;br&gt;Sign Off" style="rhombus;whiteSpace=wrap;html=1;rounded=1;shadow=0;strokeColor=#d6b656;strokeWidth=1;fillColor=#fff2cc;glass=0;fontColor=#000000;" parent="WIyWlLk6GJQsqaUBKTNV-1" vertex="1">
                    <mxGeometry x="800" y="200" width="80" height="80" as="geometry"/>
                </mxCell>
                <mxCell id="Fsg9D9SGNPeNGhBn40lB-71" style="edgeStyle=orthogonalEdgeStyle;rounded=0;orthogonalLoop=1;jettySize=auto;html=1;entryX=0.5;entryY=0;entryDx=0;entryDy=0;endArrow=classic;endFill=1;fontColor=#000000;" parent="WIyWlLk6GJQsqaUBKTNV-1" source="Fsg9D9SGNPeNGhBn40lB-69" target="Fsg9D9SGNPeNGhBn40lB-46" edge="1">
                    <mxGeometry relative="1" as="geometry">
                        <Array as="points">
                            <mxPoint x="520" y="400"/>
                        </Array>
                    </mxGeometry>
                </mxCell>
                <mxCell id="Fsg9D9SGNPeNGhBn40lB-69" value="Peer Review" style="rhombus;whiteSpace=wrap;html=1;rounded=1;shadow=0;strokeColor=#9673a6;strokeWidth=1;fillColor=#e1d5e7;glass=0;fontColor=#000000;" parent="WIyWlLk6GJQsqaUBKTNV-1" vertex="1">
                    <mxGeometry x="640" y="360" width="80" height="80" as="geometry"/>
                </mxCell>
                <mxCell id="Fsg9D9SGNPeNGhBn40lB-74" value="Sign Off" style="text;html=1;strokeColor=none;fillColor=none;align=center;verticalAlign=middle;whiteSpace=wrap;rounded=0;fontSize=9;rotation=-90;fontColor=#FFFFFF;" parent="WIyWlLk6GJQsqaUBKTNV-1" vertex="1">
                    <mxGeometry x="645" y="330" width="40" height="30" as="geometry"/>
                </mxCell>
                <mxCell id="Fsg9D9SGNPeNGhBn40lB-75" value="Further development required" style="text;html=1;strokeColor=none;fillColor=none;align=center;verticalAlign=middle;whiteSpace=wrap;rounded=0;fontSize=9;fontColor=#FFFFFF;" parent="WIyWlLk6GJQsqaUBKTNV-1" vertex="1">
                    <mxGeometry x="520" y="400" width="130" height="30" as="geometry"/>
                </mxCell>
                <mxCell id="Fsg9D9SGNPeNGhBn40lB-77" value="Further development required" style="text;html=1;strokeColor=none;fillColor=none;align=center;verticalAlign=middle;whiteSpace=wrap;rounded=0;fontSize=9;fontColor=#FFFFFF;" parent="WIyWlLk6GJQsqaUBKTNV-1" vertex="1">
                    <mxGeometry x="520" y="240" width="130" height="30" as="geometry"/>
                </mxCell>
                <mxCell id="Fsg9D9SGNPeNGhBn40lB-78" value="Further development required" style="text;html=1;strokeColor=none;fillColor=none;align=center;verticalAlign=middle;whiteSpace=wrap;rounded=0;fontSize=9;rotation=-90;fontColor=#FFFFFF;" parent="WIyWlLk6GJQsqaUBKTNV-1" vertex="1">
                    <mxGeometry x="760" y="130" width="130" height="30" as="geometry"/>
                </mxCell>
                <mxCell id="Fsg9D9SGNPeNGhBn40lB-79" value="Sign Off" style="text;html=1;strokeColor=none;fillColor=none;align=center;verticalAlign=middle;whiteSpace=wrap;rounded=0;fontSize=9;rotation=0;fontColor=#FFFFFF;" parent="WIyWlLk6GJQsqaUBKTNV-1" vertex="1">
                    <mxGeometry x="710" y="210" width="40" height="30" as="geometry"/>
                </mxCell>
                <mxCell id="Fsg9D9SGNPeNGhBn40lB-82" style="edgeStyle=orthogonalEdgeStyle;rounded=0;orthogonalLoop=1;jettySize=auto;html=1;entryX=1;entryY=1;entryDx=0;entryDy=0;endArrow=classic;endFill=1;fontColor=#000000;" parent="WIyWlLk6GJQsqaUBKTNV-1" source="Fsg9D9SGNPeNGhBn40lB-80" target="Fsg9D9SGNPeNGhBn40lB-78" edge="1">
                    <mxGeometry relative="1" as="geometry">
                        <Array as="points">
                            <mxPoint x="1000" y="80"/>
                        </Array>
                    </mxGeometry>
                </mxCell>
                <mxCell id="Fsg9D9SGNPeNGhBn40lB-86" value="" style="edgeStyle=orthogonalEdgeStyle;rounded=0;orthogonalLoop=1;jettySize=auto;html=1;endArrow=classic;endFill=1;fontColor=#000000;" parent="WIyWlLk6GJQsqaUBKTNV-1" source="Fsg9D9SGNPeNGhBn40lB-80" target="Fsg9D9SGNPeNGhBn40lB-85" edge="1">
                    <mxGeometry relative="1" as="geometry"/>
                </mxCell>
                <mxCell id="Fsg9D9SGNPeNGhBn40lB-80" value="Customer Sign Off" style="rhombus;whiteSpace=wrap;html=1;rounded=1;shadow=0;strokeColor=#82b366;strokeWidth=1;fillColor=#d5e8d4;glass=0;fontColor=#000000;" parent="WIyWlLk6GJQsqaUBKTNV-1" vertex="1">
                    <mxGeometry x="960" y="200" width="80" height="80" as="geometry"/>
                </mxCell>
                <mxCell id="Fsg9D9SGNPeNGhBn40lB-83" value="Further development required" style="text;html=1;strokeColor=none;fillColor=none;align=center;verticalAlign=middle;whiteSpace=wrap;rounded=0;fontSize=9;rotation=-90;fontColor=#FFFFFF;" parent="WIyWlLk6GJQsqaUBKTNV-1" vertex="1">
                    <mxGeometry x="920" y="130" width="130" height="30" as="geometry"/>
                </mxCell>
                <mxCell id="Fsg9D9SGNPeNGhBn40lB-84" value="Sign Off" style="text;html=1;strokeColor=none;fillColor=none;align=center;verticalAlign=middle;whiteSpace=wrap;rounded=0;fontSize=9;rotation=0;fontColor=#FFFFFF;" parent="WIyWlLk6GJQsqaUBKTNV-1" vertex="1">
                    <mxGeometry x="870" y="210" width="40" height="30" as="geometry"/>
                </mxCell>
                <mxCell id="Fsg9D9SGNPeNGhBn40lB-85" value="Project Completed" style="shape=hexagon;perimeter=hexagonPerimeter2;whiteSpace=wrap;html=1;fixedSize=1;rounded=1;shadow=0;strokeColor=#666666;strokeWidth=1;fillColor=#f5f5f5;glass=0;fontColor=#000000;" parent="WIyWlLk6GJQsqaUBKTNV-1" vertex="1">
                    <mxGeometry x="940" y="360" width="120" height="80" as="geometry"/>
                </mxCell>
                <mxCell id="Fsg9D9SGNPeNGhBn40lB-87" value="Sign Off" style="text;html=1;strokeColor=none;fillColor=none;align=center;verticalAlign=middle;whiteSpace=wrap;rounded=0;fontSize=9;rotation=90;fontColor=#FFFFFF;" parent="WIyWlLk6GJQsqaUBKTNV-1" vertex="1">
                    <mxGeometry x="995" y="275" width="40" height="30" as="geometry"/>
                </mxCell>
                <mxCell id="Fsg9D9SGNPeNGhBn40lB-88" value="" style="rounded=0;whiteSpace=wrap;html=1;fillColor=#d5e8d4;strokeColor=#82b366;fontColor=#000000;" parent="WIyWlLk6GJQsqaUBKTNV-1" vertex="1">
                    <mxGeometry x="900" y="730" width="40" height="40" as="geometry"/>
                </mxCell>
                <mxCell id="Fsg9D9SGNPeNGhBn40lB-90" value="Customer" style="text;html=1;strokeColor=none;fillColor=none;align=left;verticalAlign=middle;whiteSpace=wrap;rounded=0;fontSize=11;fontColor=#FFFFFF;" parent="WIyWlLk6GJQsqaUBKTNV-1" vertex="1">
                    <mxGeometry x="950" y="735" width="80" height="30" as="geometry"/>
                </mxCell>
                <mxCell id="Fsg9D9SGNPeNGhBn40lB-91" value="" style="rounded=0;whiteSpace=wrap;html=1;fillColor=#fff2cc;strokeColor=#d6b656;fontColor=#000000;" parent="WIyWlLk6GJQsqaUBKTNV-1" vertex="1">
                    <mxGeometry x="900" y="780" width="40" height="40" as="geometry"/>
                </mxCell>
                <mxCell id="Fsg9D9SGNPeNGhBn40lB-92" value="Business Analyst" style="text;html=1;strokeColor=none;fillColor=none;align=left;verticalAlign=middle;whiteSpace=wrap;rounded=0;fontSize=11;fontColor=#FFFFFF;" parent="WIyWlLk6GJQsqaUBKTNV-1" vertex="1">
                    <mxGeometry x="950" y="785" width="100" height="30" as="geometry"/>
                </mxCell>
                <mxCell id="Fsg9D9SGNPeNGhBn40lB-93" value="" style="rounded=0;whiteSpace=wrap;html=1;fillColor=#f8cecc;strokeColor=#b85450;fontColor=#000000;" parent="WIyWlLk6GJQsqaUBKTNV-1" vertex="1">
                    <mxGeometry x="900" y="830" width="40" height="40" as="geometry"/>
                </mxCell>
                <mxCell id="Fsg9D9SGNPeNGhBn40lB-94" value="Development Manager" style="text;html=1;strokeColor=none;fillColor=none;align=left;verticalAlign=middle;whiteSpace=wrap;rounded=0;fontSize=11;fontColor=#FFFFFF;" parent="WIyWlLk6GJQsqaUBKTNV-1" vertex="1">
                    <mxGeometry x="950" y="835" width="120" height="30" as="geometry"/>
                </mxCell>
                <mxCell id="Fsg9D9SGNPeNGhBn40lB-96" value="" style="rounded=0;whiteSpace=wrap;html=1;fillColor=#dae8fc;strokeColor=#6c8ebf;fontColor=#000000;" parent="WIyWlLk6GJQsqaUBKTNV-1" vertex="1">
                    <mxGeometry x="900" y="880" width="40" height="40" as="geometry"/>
                </mxCell>
                <mxCell id="Fsg9D9SGNPeNGhBn40lB-97" value="Solution Developer" style="text;html=1;strokeColor=none;fillColor=none;align=left;verticalAlign=middle;whiteSpace=wrap;rounded=0;fontSize=11;fontColor=#FFFFFF;" parent="WIyWlLk6GJQsqaUBKTNV-1" vertex="1">
                    <mxGeometry x="950" y="885" width="110" height="30" as="geometry"/>
                </mxCell>
                <mxCell id="Fsg9D9SGNPeNGhBn40lB-98" value="" style="rounded=0;whiteSpace=wrap;html=1;fillColor=#e1d5e7;strokeColor=#9673a6;fontColor=#000000;" parent="WIyWlLk6GJQsqaUBKTNV-1" vertex="1">
                    <mxGeometry x="900" y="930" width="40" height="40" as="geometry"/>
                </mxCell>
                <mxCell id="Fsg9D9SGNPeNGhBn40lB-99" value="Peer Reviewer" style="text;html=1;strokeColor=none;fillColor=none;align=left;verticalAlign=middle;whiteSpace=wrap;rounded=0;fontSize=11;fontColor=#FFFFFF;" parent="WIyWlLk6GJQsqaUBKTNV-1" vertex="1">
                    <mxGeometry x="950" y="935" width="80" height="30" as="geometry"/>
                </mxCell>
                <mxCell id="Fsg9D9SGNPeNGhBn40lB-100" value="" style="rounded=0;whiteSpace=wrap;html=1;fillColor=#f5f5f5;strokeColor=#666666;fontColor=#000000;" parent="WIyWlLk6GJQsqaUBKTNV-1" vertex="1">
                    <mxGeometry x="900" y="980" width="40" height="40" as="geometry"/>
                </mxCell>
                <mxCell id="Fsg9D9SGNPeNGhBn40lB-101" value="Neutral" style="text;html=1;strokeColor=none;fillColor=none;align=left;verticalAlign=middle;whiteSpace=wrap;rounded=0;fontSize=11;fontColor=#FFFFFF;" parent="WIyWlLk6GJQsqaUBKTNV-1" vertex="1">
                    <mxGeometry x="950" y="985" width="80" height="30" as="geometry"/>
                </mxCell>
            </root>
        </mxGraphModel>
    </diagram>
</mxfile>